<mxfile host="65bd71144e">
    <diagram id="NHiqnl1Ir4wC7yY77VVB" name="Page-1">
        <mxGraphModel dx="765" dy="689" grid="1" gridSize="10" guides="1" tooltips="1" connect="1" arrows="1" fold="1" page="1" pageScale="1" pageWidth="827" pageHeight="1169" math="0" shadow="0">
            <root>
                <mxCell id="0"/>
                <mxCell id="1" parent="0"/>
                <mxCell id="27" value="" style="group" vertex="1" connectable="0" parent="1">
                    <mxGeometry x="510" y="80" width="220" height="280" as="geometry"/>
                </mxCell>
                <mxCell id="28" value="Post" style="swimlane;whiteSpace=wrap;html=1;startSize=30;" vertex="1" parent="27">
                    <mxGeometry y="-10" width="220" height="260" as="geometry"/>
                </mxCell>
                <mxCell id="30" value="userId" style="text;html=1;align=center;verticalAlign=middle;resizable=0;points=[];autosize=1;strokeColor=none;fillColor=none;" vertex="1" parent="28">
                    <mxGeometry x="10" y="60" width="60" height="30" as="geometry"/>
                </mxCell>
                <mxCell id="31" value="_id" style="text;html=1;align=center;verticalAlign=middle;resizable=0;points=[];autosize=1;strokeColor=none;fillColor=none;" vertex="1" parent="28">
                    <mxGeometry x="10" y="40" width="40" height="30" as="geometry"/>
                </mxCell>
                <mxCell id="32" value="firstName" style="text;html=1;align=center;verticalAlign=middle;resizable=0;points=[];autosize=1;strokeColor=none;fillColor=none;" vertex="1" parent="28">
                    <mxGeometry x="10" y="80" width="70" height="30" as="geometry"/>
                </mxCell>
                <mxCell id="33" value="lastName" style="text;html=1;align=center;verticalAlign=middle;resizable=0;points=[];autosize=1;strokeColor=none;fillColor=none;" vertex="1" parent="28">
                    <mxGeometry x="10" y="100" width="70" height="30" as="geometry"/>
                </mxCell>
                <mxCell id="34" value="location" style="text;html=1;align=center;verticalAlign=middle;resizable=0;points=[];autosize=1;strokeColor=none;fillColor=none;" vertex="1" parent="28">
                    <mxGeometry x="10" y="120" width="60" height="30" as="geometry"/>
                </mxCell>
                <mxCell id="35" value="description" style="text;html=1;align=center;verticalAlign=middle;resizable=0;points=[];autosize=1;strokeColor=none;fillColor=none;" vertex="1" parent="28">
                    <mxGeometry x="8" y="140" width="80" height="30" as="geometry"/>
                </mxCell>
                <mxCell id="36" value="userPicturePath" style="text;html=1;align=center;verticalAlign=middle;resizable=0;points=[];autosize=1;strokeColor=none;fillColor=none;" vertex="1" parent="28">
                    <mxGeometry x="7" y="160" width="110" height="30" as="geometry"/>
                </mxCell>
                <mxCell id="37" value="picturePath" style="text;html=1;align=center;verticalAlign=middle;resizable=0;points=[];autosize=1;strokeColor=none;fillColor=none;" vertex="1" parent="28">
                    <mxGeometry x="9" y="180" width="80" height="30" as="geometry"/>
                </mxCell>
                <mxCell id="38" value="likes" style="text;html=1;align=center;verticalAlign=middle;resizable=0;points=[];autosize=1;strokeColor=none;fillColor=none;" vertex="1" parent="28">
                    <mxGeometry x="6" y="200" width="50" height="30" as="geometry"/>
                </mxCell>
                <mxCell id="39" value="comments" style="text;html=1;align=center;verticalAlign=middle;resizable=0;points=[];autosize=1;strokeColor=none;fillColor=none;" vertex="1" parent="28">
                    <mxGeometry x="7" y="220" width="80" height="30" as="geometry"/>
                </mxCell>
                <mxCell id="40" value="String Ref" style="text;html=1;align=center;verticalAlign=middle;resizable=0;points=[];autosize=1;strokeColor=none;fillColor=none;" vertex="1" parent="28">
                    <mxGeometry x="124" y="180" width="80" height="30" as="geometry"/>
                </mxCell>
                <mxCell id="41" value="String" style="text;html=1;align=center;verticalAlign=middle;resizable=0;points=[];autosize=1;strokeColor=none;fillColor=none;" vertex="1" parent="28">
                    <mxGeometry x="140" y="140" width="50" height="30" as="geometry"/>
                </mxCell>
                <mxCell id="42" value="String" style="text;html=1;align=center;verticalAlign=middle;resizable=0;points=[];autosize=1;strokeColor=none;fillColor=none;" vertex="1" parent="28">
                    <mxGeometry x="139" y="120" width="50" height="30" as="geometry"/>
                </mxCell>
                <mxCell id="43" value="String" style="text;html=1;align=center;verticalAlign=middle;resizable=0;points=[];autosize=1;strokeColor=none;fillColor=none;" vertex="1" parent="28">
                    <mxGeometry x="140" y="100" width="50" height="30" as="geometry"/>
                </mxCell>
                <mxCell id="44" value="String" style="text;html=1;align=center;verticalAlign=middle;resizable=0;points=[];autosize=1;strokeColor=none;fillColor=none;" vertex="1" parent="28">
                    <mxGeometry x="139" y="80" width="50" height="30" as="geometry"/>
                </mxCell>
                <mxCell id="45" value="String Ref" style="text;html=1;align=center;verticalAlign=middle;resizable=0;points=[];autosize=1;strokeColor=none;fillColor=none;" vertex="1" parent="28">
                    <mxGeometry x="125" y="60" width="80" height="30" as="geometry"/>
                </mxCell>
                <mxCell id="46" value="String" style="text;html=1;align=center;verticalAlign=middle;resizable=0;points=[];autosize=1;strokeColor=none;fillColor=none;" vertex="1" parent="28">
                    <mxGeometry x="139" y="40" width="50" height="30" as="geometry"/>
                </mxCell>
                <mxCell id="48" value="String Ref" style="text;html=1;align=center;verticalAlign=middle;resizable=0;points=[];autosize=1;strokeColor=none;fillColor=none;" vertex="1" parent="28">
                    <mxGeometry x="125" y="160" width="80" height="30" as="geometry"/>
                </mxCell>
                <mxCell id="49" value="Object&amp;lt;String Ref&amp;gt;" style="text;html=1;align=center;verticalAlign=middle;resizable=0;points=[];autosize=1;strokeColor=none;fillColor=none;" vertex="1" parent="28">
                    <mxGeometry x="100" y="200" width="130" height="30" as="geometry"/>
                </mxCell>
                <mxCell id="50" value="Array&amp;lt;String&amp;gt;" style="text;html=1;align=center;verticalAlign=middle;resizable=0;points=[];autosize=1;strokeColor=none;fillColor=none;" vertex="1" parent="28">
                    <mxGeometry x="115" y="220" width="100" height="30" as="geometry"/>
                </mxCell>
                <mxCell id="51" value="" style="endArrow=none;html=1;exitX=0.5;exitY=1;exitDx=0;exitDy=0;" edge="1" parent="27" source="28">
                    <mxGeometry width="50" height="50" relative="1" as="geometry">
                        <mxPoint x="70" y="140" as="sourcePoint"/>
                        <mxPoint x="110" y="20" as="targetPoint"/>
                    </mxGeometry>
                </mxCell>
                <mxCell id="54" value="" style="group" vertex="1" connectable="0" parent="1">
                    <mxGeometry x="210" y="90" width="205" height="280" as="geometry"/>
                </mxCell>
                <mxCell id="55" value="User" style="swimlane;whiteSpace=wrap;html=1;startSize=30;" vertex="1" parent="54">
                    <mxGeometry width="205" height="280" as="geometry"/>
                </mxCell>
                <mxCell id="56" value="firstName" style="text;html=1;align=center;verticalAlign=middle;resizable=0;points=[];autosize=1;strokeColor=none;fillColor=none;" vertex="1" parent="55">
                    <mxGeometry x="10" y="60" width="70" height="30" as="geometry"/>
                </mxCell>
                <mxCell id="57" value="lastName" style="text;html=1;align=center;verticalAlign=middle;resizable=0;points=[];autosize=1;strokeColor=none;fillColor=none;" vertex="1" parent="55">
                    <mxGeometry x="10" y="80" width="70" height="30" as="geometry"/>
                </mxCell>
                <mxCell id="58" value="_id" style="text;html=1;align=center;verticalAlign=middle;resizable=0;points=[];autosize=1;strokeColor=none;fillColor=none;" vertex="1" parent="55">
                    <mxGeometry x="10" y="40" width="40" height="30" as="geometry"/>
                </mxCell>
                <mxCell id="59" value="friends" style="text;html=1;align=center;verticalAlign=middle;resizable=0;points=[];autosize=1;strokeColor=none;fillColor=none;" vertex="1" parent="55">
                    <mxGeometry x="10" y="100" width="60" height="30" as="geometry"/>
                </mxCell>
                <mxCell id="60" value="email" style="text;html=1;align=center;verticalAlign=middle;resizable=0;points=[];autosize=1;strokeColor=none;fillColor=none;" vertex="1" parent="55">
                    <mxGeometry x="10" y="120" width="50" height="30" as="geometry"/>
                </mxCell>
                <mxCell id="61" value="password" style="text;html=1;align=center;verticalAlign=middle;resizable=0;points=[];autosize=1;strokeColor=none;fillColor=none;" vertex="1" parent="55">
                    <mxGeometry x="10" y="140" width="70" height="30" as="geometry"/>
                </mxCell>
                <mxCell id="62" value="picturePath" style="text;html=1;align=center;verticalAlign=middle;resizable=0;points=[];autosize=1;strokeColor=none;fillColor=none;" vertex="1" parent="55">
                    <mxGeometry x="10" y="160" width="80" height="30" as="geometry"/>
                </mxCell>
                <mxCell id="63" value="location" style="text;html=1;align=center;verticalAlign=middle;resizable=0;points=[];autosize=1;strokeColor=none;fillColor=none;" vertex="1" parent="55">
                    <mxGeometry x="10" y="180" width="60" height="30" as="geometry"/>
                </mxCell>
                <mxCell id="64" value="occupation" style="text;html=1;align=center;verticalAlign=middle;resizable=0;points=[];autosize=1;strokeColor=none;fillColor=none;" vertex="1" parent="55">
                    <mxGeometry x="10" y="200" width="80" height="30" as="geometry"/>
                </mxCell>
                <mxCell id="65" value="viewedProfile" style="text;html=1;align=center;verticalAlign=middle;resizable=0;points=[];autosize=1;strokeColor=none;fillColor=none;" vertex="1" parent="55">
                    <mxGeometry x="10" y="220" width="90" height="30" as="geometry"/>
                </mxCell>
                <mxCell id="66" value="impressions" style="text;html=1;align=center;verticalAlign=middle;resizable=0;points=[];autosize=1;strokeColor=none;fillColor=none;" vertex="1" parent="55">
                    <mxGeometry x="10" y="240" width="90" height="30" as="geometry"/>
                </mxCell>
                <mxCell id="67" value="String" style="text;html=1;align=center;verticalAlign=middle;resizable=0;points=[];autosize=1;strokeColor=none;fillColor=none;" vertex="1" parent="55">
                    <mxGeometry x="130" y="200" width="50" height="30" as="geometry"/>
                </mxCell>
                <mxCell id="68" value="String" style="text;html=1;align=center;verticalAlign=middle;resizable=0;points=[];autosize=1;strokeColor=none;fillColor=none;" vertex="1" parent="55">
                    <mxGeometry x="130" y="180" width="50" height="30" as="geometry"/>
                </mxCell>
                <mxCell id="69" value="String" style="text;html=1;align=center;verticalAlign=middle;resizable=0;points=[];autosize=1;strokeColor=none;fillColor=none;" vertex="1" parent="55">
                    <mxGeometry x="130" y="140" width="50" height="30" as="geometry"/>
                </mxCell>
                <mxCell id="70" value="String" style="text;html=1;align=center;verticalAlign=middle;resizable=0;points=[];autosize=1;strokeColor=none;fillColor=none;" vertex="1" parent="55">
                    <mxGeometry x="130" y="120" width="50" height="30" as="geometry"/>
                </mxCell>
                <mxCell id="71" value="String" style="text;html=1;align=center;verticalAlign=middle;resizable=0;points=[];autosize=1;strokeColor=none;fillColor=none;" vertex="1" parent="55">
                    <mxGeometry x="130" y="80" width="50" height="30" as="geometry"/>
                </mxCell>
                <mxCell id="72" value="String" style="text;html=1;align=center;verticalAlign=middle;resizable=0;points=[];autosize=1;strokeColor=none;fillColor=none;" vertex="1" parent="55">
                    <mxGeometry x="130" y="60" width="50" height="30" as="geometry"/>
                </mxCell>
                <mxCell id="73" value="String" style="text;html=1;align=center;verticalAlign=middle;resizable=0;points=[];autosize=1;strokeColor=none;fillColor=none;" vertex="1" parent="55">
                    <mxGeometry x="130" y="40" width="50" height="30" as="geometry"/>
                </mxCell>
                <mxCell id="74" value="Array&amp;lt;Object&amp;gt;" style="text;html=1;align=center;verticalAlign=middle;resizable=0;points=[];autosize=1;strokeColor=none;fillColor=none;" vertex="1" parent="55">
                    <mxGeometry x="105" y="100" width="100" height="30" as="geometry"/>
                </mxCell>
                <mxCell id="75" value="String Ref" style="text;html=1;align=center;verticalAlign=middle;resizable=0;points=[];autosize=1;strokeColor=none;fillColor=none;" vertex="1" parent="55">
                    <mxGeometry x="115" y="160" width="80" height="30" as="geometry"/>
                </mxCell>
                <mxCell id="76" value="Number" style="text;html=1;align=center;verticalAlign=middle;resizable=0;points=[];autosize=1;strokeColor=none;fillColor=none;" vertex="1" parent="55">
                    <mxGeometry x="120" y="220" width="70" height="30" as="geometry"/>
                </mxCell>
                <mxCell id="77" value="Number" style="text;html=1;align=center;verticalAlign=middle;resizable=0;points=[];autosize=1;strokeColor=none;fillColor=none;" vertex="1" parent="55">
                    <mxGeometry x="120" y="240" width="70" height="30" as="geometry"/>
                </mxCell>
                <mxCell id="78" value="" style="endArrow=none;html=1;exitX=0.5;exitY=1;exitDx=0;exitDy=0;" edge="1" parent="54" source="55">
                    <mxGeometry width="50" height="50" relative="1" as="geometry">
                        <mxPoint x="70" y="140" as="sourcePoint"/>
                        <mxPoint x="100" y="30" as="targetPoint"/>
                    </mxGeometry>
                </mxCell>
                <mxCell id="79" value="" style="group" vertex="1" connectable="0" parent="1">
                    <mxGeometry x="510" y="370" width="205" height="190" as="geometry"/>
                </mxCell>
                <mxCell id="2" value="Friend (Sub Doc)" style="swimlane;whiteSpace=wrap;html=1;startSize=30;container=0;" vertex="1" parent="79">
                    <mxGeometry width="205" height="190" as="geometry"/>
                </mxCell>
                <mxCell id="3" value="" style="endArrow=none;html=1;exitX=0.5;exitY=1;exitDx=0;exitDy=0;" edge="1" parent="79" source="2">
                    <mxGeometry width="50" height="50" relative="1" as="geometry">
                        <mxPoint x="70" y="140" as="sourcePoint"/>
                        <mxPoint x="103" y="30" as="targetPoint"/>
                    </mxGeometry>
                </mxCell>
                <mxCell id="5" value="firstName" style="text;html=1;align=center;verticalAlign=middle;resizable=0;points=[];autosize=1;strokeColor=none;fillColor=none;container=0;" vertex="1" parent="79">
                    <mxGeometry x="10" y="60" width="70" height="30" as="geometry"/>
                </mxCell>
                <mxCell id="6" value="lastName" style="text;html=1;align=center;verticalAlign=middle;resizable=0;points=[];autosize=1;strokeColor=none;fillColor=none;container=0;" vertex="1" parent="79">
                    <mxGeometry x="10" y="80" width="70" height="30" as="geometry"/>
                </mxCell>
                <mxCell id="4" value="_id" style="text;html=1;align=center;verticalAlign=middle;resizable=0;points=[];autosize=1;strokeColor=none;fillColor=none;container=0;" vertex="1" parent="79">
                    <mxGeometry x="10" y="40" width="40" height="30" as="geometry"/>
                </mxCell>
                <mxCell id="10" value="picturePath" style="text;html=1;align=center;verticalAlign=middle;resizable=0;points=[];autosize=1;strokeColor=none;fillColor=none;container=0;" vertex="1" parent="79">
                    <mxGeometry x="10" y="100" width="80" height="30" as="geometry"/>
                </mxCell>
                <mxCell id="11" value="location" style="text;html=1;align=center;verticalAlign=middle;resizable=0;points=[];autosize=1;strokeColor=none;fillColor=none;container=0;" vertex="1" parent="79">
                    <mxGeometry x="10" y="140" width="60" height="30" as="geometry"/>
                </mxCell>
                <mxCell id="12" value="occupation" style="text;html=1;align=center;verticalAlign=middle;resizable=0;points=[];autosize=1;strokeColor=none;fillColor=none;container=0;" vertex="1" parent="79">
                    <mxGeometry x="8" y="120" width="80" height="30" as="geometry"/>
                </mxCell>
                <mxCell id="19" value="String" style="text;html=1;align=center;verticalAlign=middle;resizable=0;points=[];autosize=1;strokeColor=none;fillColor=none;container=0;" vertex="1" parent="79">
                    <mxGeometry x="130" y="140" width="50" height="30" as="geometry"/>
                </mxCell>
                <mxCell id="18" value="String" style="text;html=1;align=center;verticalAlign=middle;resizable=0;points=[];autosize=1;strokeColor=none;fillColor=none;container=0;" vertex="1" parent="79">
                    <mxGeometry x="130" y="120" width="50" height="30" as="geometry"/>
                </mxCell>
                <mxCell id="17" value="String" style="text;html=1;align=center;verticalAlign=middle;resizable=0;points=[];autosize=1;strokeColor=none;fillColor=none;container=0;" vertex="1" parent="79">
                    <mxGeometry x="130" y="80" width="50" height="30" as="geometry"/>
                </mxCell>
                <mxCell id="16" value="String" style="text;html=1;align=center;verticalAlign=middle;resizable=0;points=[];autosize=1;strokeColor=none;fillColor=none;container=0;" vertex="1" parent="79">
                    <mxGeometry x="130" y="60" width="50" height="30" as="geometry"/>
                </mxCell>
                <mxCell id="15" value="String" style="text;html=1;align=center;verticalAlign=middle;resizable=0;points=[];autosize=1;strokeColor=none;fillColor=none;container=0;" vertex="1" parent="79">
                    <mxGeometry x="130" y="40" width="50" height="30" as="geometry"/>
                </mxCell>
                <mxCell id="23" value="String Ref" style="text;html=1;align=center;verticalAlign=middle;resizable=0;points=[];autosize=1;strokeColor=none;fillColor=none;container=0;" vertex="1" parent="79">
                    <mxGeometry x="115" y="100" width="80" height="30" as="geometry"/>
                </mxCell>
                <mxCell id="81" value="Images" style="swimlane;whiteSpace=wrap;html=1;startSize=30;container=0;" vertex="1" parent="1">
                    <mxGeometry x="517.5" y="610" width="205" height="70" as="geometry"/>
                </mxCell>
                <mxCell id="85" value="path" style="text;html=1;align=center;verticalAlign=middle;resizable=0;points=[];autosize=1;strokeColor=none;fillColor=none;container=0;" vertex="1" parent="81">
                    <mxGeometry x="77.5" y="40" width="50" height="30" as="geometry"/>
                </mxCell>
                <mxCell id="97" value="" style="edgeStyle=orthogonalEdgeStyle;html=1;exitX=1;exitY=0.567;exitDx=0;exitDy=0;exitPerimeter=0;endArrow=ERmany;endFill=0;startArrow=ERone;startFill=0;strokeWidth=1;targetPerimeterSpacing=2;sourcePerimeterSpacing=2;" edge="1" parent="1">
                    <mxGeometry relative="1" as="geometry">
                        <mxPoint x="415" y="204.01" as="sourcePoint"/>
                        <mxPoint x="510" y="387" as="targetPoint"/>
                        <Array as="points">
                            <mxPoint x="470" y="204"/>
                            <mxPoint x="470" y="387"/>
                        </Array>
                    </mxGeometry>
                </mxCell>
                <mxCell id="98" value="" style="edgeStyle=orthogonalEdgeStyle;html=1;strokeWidth=1;startArrow=ERone;startFill=0;endArrow=ERmany;endFill=0;sourcePerimeterSpacing=2;targetPerimeterSpacing=2;entryX=0;entryY=0.25;entryDx=0;entryDy=0;" edge="1" parent="1" target="81">
                    <mxGeometry relative="1" as="geometry">
                        <mxPoint x="415" y="265" as="sourcePoint"/>
                        <mxPoint x="512.5" y="627.5" as="targetPoint"/>
                    </mxGeometry>
                </mxCell>
                <mxCell id="99" style="edgeStyle=orthogonalEdgeStyle;html=1;entryX=1;entryY=0.75;entryDx=0;entryDy=0;strokeWidth=1;startArrow=ERone;startFill=0;endArrow=ERmany;endFill=0;sourcePerimeterSpacing=2;targetPerimeterSpacing=2;" edge="1" parent="1" target="81">
                    <mxGeometry relative="1" as="geometry">
                        <mxPoint x="715" y="485.03999999999996" as="sourcePoint"/>
                        <mxPoint x="730.5" y="662.5" as="targetPoint"/>
                        <Array as="points">
                            <mxPoint x="740" y="485"/>
                            <mxPoint x="740" y="555"/>
                            <mxPoint x="741" y="555"/>
                            <mxPoint x="741" y="662"/>
                        </Array>
                    </mxGeometry>
                </mxCell>
                <mxCell id="100" style="edgeStyle=orthogonalEdgeStyle;html=1;entryX=1;entryY=0.75;entryDx=0;entryDy=0;strokeWidth=1;startArrow=ERone;startFill=0;endArrow=ERmany;endFill=0;sourcePerimeterSpacing=2;targetPerimeterSpacing=2;" edge="1" parent="1" target="81">
                    <mxGeometry relative="1" as="geometry">
                        <mxPoint x="730" y="245" as="sourcePoint"/>
                        <Array as="points">
                            <mxPoint x="750" y="245"/>
                            <mxPoint x="750" y="662"/>
                        </Array>
                    </mxGeometry>
                </mxCell>
                <mxCell id="101" style="edgeStyle=orthogonalEdgeStyle;html=1;strokeWidth=1;startArrow=ERone;startFill=0;endArrow=ERmany;endFill=0;sourcePerimeterSpacing=2;targetPerimeterSpacing=2;" edge="1" parent="1">
                    <mxGeometry relative="1" as="geometry">
                        <mxPoint x="730" y="265.03999999999996" as="sourcePoint"/>
                        <mxPoint x="730" y="663" as="targetPoint"/>
                        <Array as="points">
                            <mxPoint x="784" y="265"/>
                            <mxPoint x="784" y="662"/>
                        </Array>
                    </mxGeometry>
                </mxCell>
                <mxCell id="102" style="edgeStyle=orthogonalEdgeStyle;html=1;strokeWidth=1;startArrow=ERone;startFill=0;endArrow=ERmany;endFill=0;sourcePerimeterSpacing=2;targetPerimeterSpacing=2;" edge="1" parent="1">
                    <mxGeometry relative="1" as="geometry">
                        <mxPoint x="210" y="143" as="targetPoint"/>
                        <mxPoint x="510" y="428" as="sourcePoint"/>
                        <Array as="points">
                            <mxPoint x="190" y="428"/>
                            <mxPoint x="190" y="143"/>
                        </Array>
                    </mxGeometry>
                </mxCell>
                <mxCell id="103" style="edgeStyle=orthogonalEdgeStyle;html=1;strokeWidth=1;startArrow=ERone;startFill=0;endArrow=ERmany;endFill=0;sourcePerimeterSpacing=2;targetPerimeterSpacing=2;" edge="1" parent="1">
                    <mxGeometry relative="1" as="geometry">
                        <mxPoint x="210.8" y="146" as="targetPoint"/>
                        <mxPoint x="730" y="283" as="sourcePoint"/>
                        <Array as="points">
                            <mxPoint x="780" y="283"/>
                            <mxPoint x="780" y="56"/>
                            <mxPoint x="180" y="56"/>
                            <mxPoint x="180" y="146"/>
                        </Array>
                    </mxGeometry>
                </mxCell>
                <mxCell id="104" style="edgeStyle=orthogonalEdgeStyle;html=1;strokeWidth=1;startArrow=ERone;startFill=0;endArrow=ERmany;endFill=0;sourcePerimeterSpacing=2;targetPerimeterSpacing=2;" edge="1" parent="1">
                    <mxGeometry relative="1" as="geometry">
                        <mxPoint x="210.8" y="145" as="targetPoint"/>
                        <mxPoint x="730" y="145" as="sourcePoint"/>
                        <Array as="points">
                            <mxPoint x="760" y="145"/>
                            <mxPoint x="760" y="40"/>
                            <mxPoint x="200" y="40"/>
                            <mxPoint x="200" y="145"/>
                        </Array>
                    </mxGeometry>
                </mxCell>
            </root>
        </mxGraphModel>
    </diagram>
</mxfile>